<svg width="48" height="48" viewBox="0 0 48 48" fill="none" xmlns="http://www.w3.org/2000/svg">
<g filter="url(#filter0_d_241_918)">
<rect x="4" width="40" height="40" rx="20" fill="#002B45" shape-rendering="crispEdges"/>
<path d="M18.196 25V17.3636H20.9403V25H18.196ZM19.5682 16.5682C19.197 16.5682 18.8788 16.4455 18.6136 16.2003C18.3485 15.955 18.2159 15.66 18.2159 15.3153C18.2159 14.9706 18.3485 14.6757 18.6136 14.4304C18.8788 14.1851 19.197 14.0625 19.5682 14.0625C19.9427 14.0625 20.2609 14.1851 20.5227 14.4304C20.7879 14.6757 20.9205 14.9706 20.9205 15.3153C20.9205 15.66 20.7879 15.955 20.5227 16.2003C20.2609 16.4455 19.9427 16.5682 19.5682 16.5682ZM25.0829 20.7045V25H22.3386V17.3636H24.9437V18.8153H25.0233C25.189 18.3314 25.4806 17.9519 25.8983 17.6768C26.3192 17.4018 26.8097 17.2642 27.3699 17.2642C27.9101 17.2642 28.3791 17.3885 28.7768 17.6371C29.1779 17.8823 29.4877 18.2204 29.7065 18.6513C29.9286 19.0821 30.0379 19.5743 30.0346 20.1278V25H27.2903V20.7045C27.2936 20.3267 27.1975 20.0301 27.002 19.8146C26.8097 19.5992 26.5413 19.4915 26.1966 19.4915C25.9712 19.4915 25.774 19.5412 25.6049 19.6406C25.4392 19.7367 25.3116 19.8759 25.2221 20.0582C25.1326 20.2372 25.0862 20.4527 25.0829 20.7045Z" fill="white"/>
</g>
<defs>
<filter id="filter0_d_241_918" x="0" y="0" width="48" height="48" filterUnits="userSpaceOnUse" color-interpolation-filters="sRGB">
<feFlood flood-opacity="0" result="BackgroundImageFix"/>
<feColorMatrix in="SourceAlpha" type="matrix" values="0 0 0 0 0 0 0 0 0 0 0 0 0 0 0 0 0 0 127 0" result="hardAlpha"/>
<feOffset dy="4"/>
<feGaussianBlur stdDeviation="2"/>
<feComposite in2="hardAlpha" operator="out"/>
<feColorMatrix type="matrix" values="0 0 0 0 0 0 0 0 0 0 0 0 0 0 0 0 0 0 0.25 0"/>
<feBlend mode="normal" in2="BackgroundImageFix" result="effect1_dropShadow_241_918"/>
<feBlend mode="normal" in="SourceGraphic" in2="effect1_dropShadow_241_918" result="shape"/>
</filter>
</defs>
</svg>
