<svg width="55" height="55" viewBox="0 0 55 55" fill="none" xmlns="http://www.w3.org/2000/svg">
<path fill-rule="evenodd" clip-rule="evenodd" d="M43.1515 15.9929C41.7586 16.5587 40.4046 18.2881 39.3658 19.3482C40.6272 22.8503 43.717 25.8299 42.5311 33.334C40.1361 48.4899 21.7529 54.0102 10.9898 44.031C4.73995 38.2364 3.17482 26.0238 9.55538 18.5249C15.3593 11.7039 25.4394 9.44557 34.7965 15.0589L38.4843 11.4742C35.5837 7.91243 27.0075 5.76052 20.7842 6.59886C1.10466 9.25034 -6.84019 33.1776 6.8525 47.4123C14.7859 55.6595 30.2783 56.9991 39.7702 48.7395C41.6424 47.1104 43.6371 44.661 44.8711 42.4492C49.8908 33.4524 48.572 21.3435 43.1518 15.9929H43.1515Z" fill="#FAA419"/>
<path fill-rule="evenodd" clip-rule="evenodd" d="M36.2081 22.515L33.7004 25.0393C35.6949 31.9416 35.2899 35.4021 30.5828 39.184C26.3388 42.5937 19.6353 41.6093 16.2798 38.3593C8.54627 30.8689 16.0419 14.9759 29.0986 20.7005L31.9212 18.0258C25.9486 12.678 15.8628 16.7713 12.5225 21.1262C1.88436 34.9969 18.6947 52.7632 33.3715 41.973C35.4556 40.4407 37.7689 37.235 38.5413 33.496C39.1229 30.681 38.8681 27.5029 37.7678 24.8526C37.6245 24.5078 37.3713 23.9311 37.1484 23.5863C37.1025 23.5155 37.0429 23.422 36.9934 23.3541C36.9436 23.2858 36.872 23.1961 36.8203 23.1324C36.4706 22.7004 36.5677 22.8256 36.2078 22.515H36.2081Z" fill="#FAA419"/>
<path fill-rule="evenodd" clip-rule="evenodd" d="M41.4988 6.78524L42.1879 10.718L27.8452 25.0309C24.5162 24.3104 22.0588 23.1187 19.3838 26.086C17.3219 28.3733 17.2945 32.3479 19.2119 34.6759C20.9987 36.8456 25.3384 37.6339 27.9521 35.4106C31.2962 32.5664 30.3119 30.7768 29.4434 26.6868L43.9408 12.2235L47.0517 12.7483C49.757 9.29589 53.491 6.95148 54.1503 5.41971C50.8374 3.81357 50.6911 5.48206 49.7239 1.90446C49.3477 0.512964 49.3742 0.603466 48.6857 0C47.19 2.11746 43.4757 5.52061 41.4985 6.78496L41.4988 6.78524Z" fill="#FAA419"/>
</svg>
