<svg width="13" height="13" viewBox="0 0 13 13" fill="none" xmlns="http://www.w3.org/2000/svg">
<g clip-path="url(#clip0_241_1021)">
<path d="M11.8206 0.788658C11.891 0.835566 11.9418 0.896154 11.9731 0.970424C12.0044 1.04469 12.0122 1.12483 11.9965 1.21082L10.2844 11.507C10.2766 11.5695 10.2532 11.6262 10.2141 11.677C10.175 11.7278 10.1281 11.7728 10.0733 11.8119C10.0421 11.8275 10.0088 11.8392 9.97367 11.8471C9.93849 11.8549 9.90135 11.8588 9.86226 11.8588C9.83881 11.8588 9.8134 11.8568 9.78604 11.8529C9.75868 11.849 9.72936 11.8392 9.69809 11.8236L6.67257 10.5923L5.04254 12.5624C5.00345 12.6171 4.95459 12.6562 4.89595 12.6797C4.83732 12.7031 4.77673 12.7148 4.71419 12.7148C4.69073 12.7148 4.66728 12.7129 4.64382 12.709C4.62037 12.7051 4.59692 12.6992 4.57346 12.6914C4.48747 12.6601 4.41906 12.6073 4.36824 12.5331C4.31743 12.4588 4.29202 12.3787 4.29202 12.2927V9.94731L10.0733 2.85258L2.91998 9.05607L0.269717 7.96548C0.191538 7.93421 0.128995 7.88534 0.0820878 7.81889C0.0351805 7.75244 0.00781789 7.68013 0 7.60195C0 7.51595 0.0175902 7.43777 0.0527707 7.36741C0.0879512 7.29705 0.140722 7.24232 0.211083 7.20323L11.3633 0.765205C11.3946 0.749569 11.4297 0.735888 11.4688 0.724161C11.5079 0.712434 11.5431 0.706571 11.5744 0.706571C11.6213 0.706571 11.6662 0.714389 11.7092 0.730024C11.7522 0.74566 11.7894 0.765205 11.8206 0.788658Z" fill="white"/>
</g>
<defs>
<clipPath id="clip0_241_1021">
<rect width="12.02" height="13" fill="white" transform="matrix(1 0 0 -1 0 13)"/>
</clipPath>
</defs>
</svg>
