<svg width="51" height="45" viewBox="0 0 51 45" fill="none" xmlns="http://www.w3.org/2000/svg">
<path fill-rule="evenodd" clip-rule="evenodd" d="M13.9408 31.8711C13.8636 32.0856 13.8847 32.0416 13.732 32.198C13.4322 32.1364 11.6772 31.1841 11.2974 30.9836C10.4801 30.5519 9.6703 30.1424 8.89859 29.6766C7.1202 28.6036 6.92491 27.4618 5.93321 25.2944C5.1652 23.6156 4.48071 21.8818 3.69062 20.1908C2.42367 17.4789 -0.208096 18.6645 0.0131218 20.7402C0.0801201 21.3681 1.91547 28.2349 2.23657 29.5011C2.51337 30.5925 2.6591 31.3802 3.16359 32.2817C3.61158 33.0824 4.25625 33.5993 4.9832 34.1035C7.14505 35.6026 9.32744 37.268 11.4356 38.7033C13.1448 39.8672 14.1462 40.4364 15.1606 42.3256C15.6772 43.2878 15.9817 43.7395 16.8589 44.2695C17.6633 44.7554 18.9192 44.8879 19.9322 44.5249C21.755 43.8718 22.6371 42.1124 22.1623 39.6653C21.8876 38.2498 21.2673 34.827 20.8623 33.6235C20.5108 32.5789 19.9505 32.0714 19.3079 31.5344L15.3897 28.1039C15.0501 27.7967 14.7619 27.4961 14.421 27.2213C13.4894 26.4703 12.318 24.8674 10.9138 25.7307C10.1904 26.1754 9.55699 27.1687 10.2256 28.2212C10.5652 28.7558 12.349 30.3548 13.0003 30.9425L13.9406 31.8711H13.9408Z" fill="#FAA419"/>
<path fill-rule="evenodd" clip-rule="evenodd" d="M37.2282 32.2413L37.0474 31.9505L38.9188 30.1673C39.4691 29.6639 40.3061 28.9112 40.7316 28.2745C41.398 27.2771 40.9565 26.3356 40.2223 25.8254C38.955 24.945 38.0083 25.9563 37.174 26.6962L35.7157 27.9866C35.366 28.2826 35.0995 28.5575 34.7517 28.8744C33.1362 30.3465 31.0647 31.6958 30.2034 33.5273C29.7801 34.4277 29.7181 35.4298 29.5279 36.497C29.0251 39.3166 27.4803 43.161 31.0191 44.4823C34.683 45.8502 35.7235 41.8848 37.4365 40.3128C38.564 39.2782 44.3609 35.2255 45.9477 34.1293C46.7725 33.5595 47.3142 33.192 47.8357 32.312C48.4484 31.278 49.096 28.055 49.4724 26.6044C49.7475 25.5438 50.9004 21.4622 50.9794 20.761C51.114 19.568 50.4596 18.8044 49.4407 18.6427C48.29 18.4597 47.6943 19.4792 47.3241 20.2367C46.2634 22.4068 44.983 25.4489 43.9078 27.8105C43.3249 29.0905 43.2781 29.0566 42.0911 29.6979C41.2949 30.1279 40.4977 30.5864 39.6791 30.9918C39.2743 31.1922 38.8674 31.4089 38.46 31.6255C38.1345 31.7986 37.5499 32.1333 37.2281 32.2413H37.2282Z" fill="#FAA419"/>
<path fill-rule="evenodd" clip-rule="evenodd" d="M24.8768 6.68784C20.2202 7.31584 17.5883 11.9079 18.997 16.0065C19.9576 18.8016 21.9734 19.9639 22.312 22.6063C22.553 24.4873 22.1842 24.1886 26.7042 24.1841C28.7392 24.1821 29.2531 24.3853 29.3386 22.8724C29.4035 21.7262 29.8345 20.6914 30.3416 19.9216C31.3685 18.3624 32.5431 16.902 32.7986 14.4725C33.2698 9.99114 29.3948 6.07853 24.8768 6.68784Z" fill="#FED23A"/>
<path fill-rule="evenodd" clip-rule="evenodd" d="M25.8191 19.7411C26.5393 18.7752 29.1337 16.9108 30.0591 14.8534C30.9375 12.9006 28.9388 11.0013 27.1013 11.5101C26.3528 11.7175 26.1411 12.0687 25.6771 12.4105C25.3635 12.2275 24.1708 10.7236 22.3861 11.7783C21.4912 12.3072 20.6871 13.5363 21.3387 14.9345C21.9954 16.3439 25.1462 19.5174 25.8189 19.7409L25.8191 19.7411Z" fill="#F7F7F7"/>
<path fill-rule="evenodd" clip-rule="evenodd" d="M23.383 27.8059C24.5232 27.8059 25.692 27.6909 26.833 27.6534C27.1436 27.6432 28.3696 27.6699 28.5479 27.5808C28.8545 27.4275 29.0646 26.6328 28.1746 26.6328C27.4943 26.6328 23.2438 26.6885 22.9403 26.8888C22.5738 27.1307 22.6521 27.8059 23.383 27.8059Z" fill="#878484"/>
<path fill-rule="evenodd" clip-rule="evenodd" d="M27.3053 25.0252C26.1351 25.0741 24.9798 25.0954 23.8252 25.1437C23.2979 25.1658 22.5245 25.086 22.6858 25.785C22.8046 26.3 23.7077 26.1596 24.206 26.1447C25.3615 26.1099 26.521 26.0629 27.666 26.0243C28.2352 26.0051 28.9398 26.0323 28.7391 25.3072C28.6105 24.8424 27.8363 25.0029 27.3051 25.0252H27.3053Z" fill="#878484"/>
<path fill-rule="evenodd" clip-rule="evenodd" d="M26.6829 28.3208C24.8236 28.3963 22.7758 28.0775 24.1378 29.455C24.9123 30.2383 26.6035 30.3124 27.4456 29.484C27.6323 29.3005 28.0537 28.8622 27.9524 28.5132C27.8458 28.1456 27.0367 28.3063 26.6829 28.3207V28.3208Z" fill="#878484"/>
<path fill-rule="evenodd" clip-rule="evenodd" d="M32.9945 20.4641C32.9277 21.0763 33.2022 21.3658 33.4746 21.6534C33.6692 21.8587 33.7121 21.9118 33.8649 22.0932L35.1471 23.4299C35.649 23.892 35.4312 23.915 36.378 23.9923C36.3428 22.9523 36.0721 23.0378 35.0929 21.8869C34.9154 21.6782 33.619 20.2537 33.4117 20.2344C33.2352 20.2879 33.1153 20.3793 32.9945 20.4641Z" fill="#FAA419"/>
<path fill-rule="evenodd" clip-rule="evenodd" d="M15.5829 22.9497C16.1028 22.8361 17.8176 21.3734 18.3692 20.922C18.7865 20.5807 18.822 20.5923 18.9252 19.8522C18.1125 19.672 18.2678 19.7625 17.6711 20.2233L15.6037 21.862C15.0975 22.243 14.9506 22.5548 15.5829 22.9497Z" fill="#FAA419"/>
<path fill-rule="evenodd" clip-rule="evenodd" d="M35.6641 13.399C36.1562 14.0142 36.1948 13.8601 37.1654 13.9226L39.3482 13.9887C39.6963 13.9887 39.978 13.794 40.1304 13.5345C39.6985 12.8284 38.9189 12.9908 37.8762 12.9668C36.8273 12.9425 36.1025 12.6506 35.6641 13.3992V13.399Z" fill="#FAA419"/>
<path fill-rule="evenodd" clip-rule="evenodd" d="M33.0783 7.13992C34.0209 7.14903 34.0135 7.03402 35.0729 6.19145L36.2718 5.21842C36.3976 5.09276 36.4527 4.95336 36.5996 4.79652C36.4183 4.12021 35.8945 4.26393 35.5603 4.50645C35.2083 4.76194 34.9329 4.99366 34.5949 5.26566C33.5717 6.08909 33.1545 6.22371 33.0781 7.13992H33.0783Z" fill="#FAA419"/>
<path fill-rule="evenodd" clip-rule="evenodd" d="M15.0127 13.0529C16.3974 13.0529 15.8417 13.051 16.3596 12.6606C16.0854 12.0974 15.7895 12.0874 15.0153 12.0683C14.6829 12.0601 12.7803 11.8974 12.4618 12.0744C12.0969 12.2774 11.952 12.8803 12.7114 12.9493C13.4232 13.0141 14.2919 13.0529 15.0127 13.0529Z" fill="#FAA419"/>
<path fill-rule="evenodd" clip-rule="evenodd" d="M19.6196 6.60519C19.5106 5.64482 19.3136 5.66366 18.4891 4.87882C18.0962 4.50492 17.4315 3.78739 16.9242 3.54688C15.9188 4.02621 16.9393 4.84099 17.532 5.38871C17.793 5.63 18.099 5.89476 18.386 6.13373C18.8746 6.5405 18.7662 6.597 19.6196 6.60503V6.60519Z" fill="#FAA419"/>
<path fill-rule="evenodd" clip-rule="evenodd" d="M26.172 3.31333C26.172 3.87741 26.2958 3.82909 26.4933 4.14695C27.1531 3.92064 27.0946 3.74635 27.1383 2.99563L27.2045 0.630002C27.2045 0.247771 26.9555 0.132607 26.6455 0C26.2434 0.583071 26.2665 0.263052 26.239 1.46115C26.2248 2.07726 26.1719 2.69707 26.1719 3.31333H26.172Z" fill="#FAA419"/>
</svg>
