<svg width="39" height="59" viewBox="0 0 39 59" fill="none" xmlns="http://www.w3.org/2000/svg">
<path fill-rule="evenodd" clip-rule="evenodd" d="M10.5292 42.0211L28.4868 42.1384C29.4726 31.8347 40.5163 31.7002 38.824 16.9025C36.2657 -5.46535 3.21372 -5.68791 0.233232 16.5626C-1.75662 31.417 9.61438 32.0544 10.5295 42.0211H10.5292ZM13.2774 39.2022L25.7569 39.2194C28.5798 33.1348 26.66 35.4846 31.9882 29.9999C34.5473 27.3655 36.3704 22.7593 35.9719 17.9C35.2954 9.64534 28.2774 2.77383 19.513 2.76124C10.7366 2.74866 3.68201 9.60243 3.04494 17.9005C2.33265 27.1776 7.86625 30.4702 10.7166 33.8611C12.0914 35.4966 12.3079 37.0945 13.2771 39.2019L13.2774 39.2022Z" fill="#FAA419"/>
<path fill-rule="evenodd" clip-rule="evenodd" d="M27.9479 52.7266L11.0625 52.7409C13.5009 60.6208 25.6008 60.5346 27.9479 52.7266Z" fill="#FAA419"/>
<path fill-rule="evenodd" clip-rule="evenodd" d="M27.8477 46.6909C29.502 46.6834 30.7704 46.9248 30.9049 45.2846C31.0359 43.6846 29.7695 43.6137 28.2451 43.6134L10.7635 43.6094C7.61592 43.6094 7.45 45.6931 8.87374 46.4314C9.97136 47.0006 25.9051 46.688 27.8477 46.6909Z" fill="#FAA419"/>
<path fill-rule="evenodd" clip-rule="evenodd" d="M10.7655 51.195H13.5466L28.247 51.1967C31.937 51.1967 31.8317 48.1507 28.247 48.151L10.7655 48.1484C7.16936 48.151 7.07067 51.1944 10.7655 51.195Z" fill="#FAA419"/>
</svg>
